<svg width="15" height="15" viewBox="0 0 15 15" fill="none" xmlns="http://www.w3.org/2000/svg">
<path d="M1.236 9.84401C1.132 9.84401 1.02 9.76801 0.9 9.61601C0.78 9.46401 0.72 9.34001 0.72 9.24401C0.72 9.14801 0.76 8.96001 0.84 8.68001C1.115 7.69001 1.3295 6.89474 1.4835 6.29421C1.56582 5.9732 1.27939 5.71601 0.948 5.71601V5.71601C0.82 5.71601 0.692 5.66001 0.564 5.54801C0.436 5.43601 0.372 5.31201 0.372 5.17601C0.372 5.04001 0.552 4.92001 0.912 4.81601C1.16491 4.75496 1.37504 4.7058 1.54238 4.66852C1.7411 4.62425 1.89931 4.46961 1.94024 4.27017C1.98707 4.04199 2.02432 3.85593 2.052 3.71201C2.244 2.60801 2.504 1.81201 2.832 1.32401C3.16 0.83601 3.604 0.59201 4.164 0.59201C4.564 0.59201 4.892 0.75201 5.148 1.07201C5.404 1.38401 5.532 1.75601 5.532 2.18801C5.532 2.61201 5.42 2.82401 5.196 2.82401C5.004 2.82401 4.848 2.60801 4.728 2.17601C4.688 2.01601 4.62 1.86801 4.524 1.73201C4.428 1.59601 4.312 1.52801 4.176 1.52801C4.04 1.52801 3.916 1.59201 3.804 1.72001C3.692 1.84001 3.592 2.01601 3.504 2.24801C3.272 2.89601 3.112 3.48801 3.024 4.02401V4.02401C2.97756 4.22721 3.14857 4.41452 3.3565 4.39988C3.50672 4.3893 3.65589 4.38401 3.804 4.38401C4.1 4.38401 4.312 4.41601 4.44 4.48001C4.576 4.54401 4.644 4.62401 4.644 4.72001C4.644 4.87201 4.512 4.98801 4.248 5.06801C4.02308 5.13617 3.61523 5.22175 3.02446 5.32475C2.82777 5.35904 2.66895 5.50628 2.62077 5.70004C2.09577 7.81146 1.73418 9.07678 1.536 9.49601C1.424 9.72801 1.324 9.84401 1.236 9.84401Z" fill="black"/>
<path d="M8.2079 3.292C8.3759 3.292 8.5199 3.352 8.6399 3.472C8.7679 3.584 8.8319 3.7 8.8319 3.82C8.8319 3.932 8.7159 4.084 8.4839 4.276C8.2599 4.468 7.9799 4.684 7.6439 4.924C7.3079 5.164 6.9399 5.476 6.5399 5.86C6.1399 6.244 5.7719 6.652 5.4359 7.084C5.0999 7.516 4.8159 8.048 4.5839 8.68C4.3599 9.312 4.2479 9.924 4.2479 10.516C4.2479 11.1 4.3279 11.592 4.4879 11.992C4.6559 12.384 4.8599 12.7 5.0999 12.94C5.3479 13.18 5.6159 13.4 5.9039 13.6C6.1919 13.792 6.4599 13.944 6.7079 14.056C7.2759 14.328 7.5599 14.548 7.5599 14.716C7.5599 14.892 7.4439 14.98 7.2119 14.98C6.8279 14.98 6.4119 14.88 5.9639 14.68C5.5159 14.488 5.0799 14.216 4.6559 13.864C4.2319 13.512 3.8799 13.044 3.5999 12.46C3.3199 11.868 3.1799 11.196 3.1799 10.444C3.1799 9.684 3.3279 8.912 3.6239 8.128C3.9199 7.336 4.2839 6.66 4.7159 6.1C5.1479 5.532 5.6039 5.032 6.0839 4.6C6.5639 4.16 6.9959 3.832 7.3799 3.616C7.7719 3.4 8.0479 3.292 8.2079 3.292Z" fill="black"/>
<path d="M8.1775 8.30428C8.32917 8.64134 8.78523 8.67797 9.00914 8.3839C9.41937 7.84509 9.73903 7.44646 9.96812 7.188C10.2881 6.836 10.5241 6.66 10.6761 6.66C10.8281 6.66 10.9761 6.724 11.1201 6.852C11.2721 6.98 11.3481 7.092 11.3481 7.188C11.3481 7.276 11.3201 7.352 11.2641 7.416C11.2081 7.472 11.1161 7.552 10.9881 7.656C10.8681 7.76 10.7521 7.872 10.6401 7.992C10.5361 8.104 10.4001 8.264 10.2321 8.472C10.0641 8.672 9.86012 8.924 9.62012 9.228C9.4945 9.38827 9.38061 9.53213 9.27844 9.65957C9.14043 9.83171 9.12613 10.0749 9.23612 10.2661C9.24395 10.2797 9.25195 10.2937 9.26012 10.308C9.36412 10.476 9.44812 10.616 9.51212 10.728C9.58412 10.84 9.67212 10.984 9.77612 11.16C9.88812 11.328 9.98012 11.468 10.0521 11.58C10.1241 11.684 10.1921 11.792 10.2561 11.904C10.3841 12.112 10.4481 12.256 10.4481 12.336C10.4481 12.416 10.4201 12.484 10.3641 12.54C10.3081 12.588 10.2401 12.612 10.1601 12.612C9.86049 12.612 9.41124 12.1659 8.81235 11.2737C8.62042 10.9877 8.20486 10.9598 7.98261 11.2229C7.20022 12.149 6.71406 12.612 6.52412 12.612C6.39612 12.612 6.26412 12.548 6.12812 12.42C5.99212 12.284 5.92412 12.16 5.92412 12.048C5.92412 12.008 6.01212 11.9 6.18812 11.724C6.83339 11.0787 7.34313 10.533 7.71735 10.0869C7.8473 9.93199 7.86326 9.71319 7.76618 9.53582C7.46771 8.99054 7.20969 8.47994 6.99212 8.004C6.73612 7.444 6.60812 7.108 6.60812 6.996C6.60812 6.876 6.61212 6.8 6.62012 6.768C6.63612 6.696 6.72412 6.66 6.88412 6.66C7.04412 6.66 7.24012 6.708 7.47212 6.804C7.70412 6.9 7.82012 7.016 7.82012 7.152C7.82012 7.39072 7.93925 7.77481 8.1775 8.30428Z" fill="black"/>
<path d="M14.2772 6.94C14.2772 7.708 14.1652 8.464 13.9412 9.208C13.7252 9.944 13.4452 10.592 13.1012 11.152C12.7572 11.704 12.3772 12.22 11.9612 12.7C11.5532 13.172 11.1532 13.56 10.7612 13.864C9.92921 14.512 9.36121 14.836 9.05721 14.836C8.87321 14.836 8.78121 14.768 8.78121 14.632C8.78121 14.488 9.15721 14.088 9.90921 13.432C10.6532 12.792 11.3572 11.984 12.0212 11.008C12.3492 10.528 12.6212 9.968 12.8372 9.328C13.0532 8.68 13.1612 8.072 13.1612 7.504C13.1612 6.928 13.0932 6.46 12.9572 6.1C12.8292 5.74 12.6692 5.46 12.4772 5.26C12.2932 5.06 12.1052 4.888 11.9132 4.744C11.7212 4.6 11.5572 4.468 11.4212 4.348C11.2932 4.22 11.2292 4.096 11.2292 3.976C11.2292 3.632 11.4532 3.46 11.9012 3.46C12.4372 3.46 12.9652 3.804 13.4852 4.492C14.0132 5.18 14.2772 5.996 14.2772 6.94Z" fill="black"/>
</svg>
